<svg xmlns="http://www.w3.org/2000/svg" viewBox="0 0 512 512" width="512" height="512" role="img" aria-label="DEZ 11"><defs><clipPath id="cB512"><rect width="512" height="512" rx="116"/></clipPath><linearGradient id="flB512" x1="0" y1="0" x2="1" y2="0"><stop offset="0" stop-color="#000000" stop-opacity="0.24"/><stop offset="0.32" stop-color="#FFFFFF" stop-opacity="0.17"/><stop offset="0.64" stop-color="#000000" stop-opacity="0.05"/><stop offset="1" stop-color="#000000" stop-opacity="0.28"/></linearGradient><mask id="mB512"><rect width="512" height="512" fill="#FFFFFF"/><g transform="translate(84,96) scale(0.764)" fill="none" stroke-linecap="round" stroke-linejoin="round"><path d="M30 84 L120 6 L120 306 M270 84 L360 6 L360 306" stroke="#000000" stroke-width="120"/><path d="M30 84 L120 6 L120 306 M270 84 L360 6 L360 306" stroke="#FFFFFF" stroke-width="48"/></g></mask></defs><g clip-path="url(#cB512)"><rect width="512" height="512" fill="#0B0C10"/><g mask="url(#mB512)"><rect x="0.00" y="0.0" width="47.15" height="512.0" fill="#EA3C1D"/><rect x="46.55" y="0.0" width="47.15" height="512.0" fill="#EE4C24"/><rect x="93.09" y="0.0" width="47.15" height="512.0" fill="#F25C2A"/><rect x="139.64" y="0.0" width="47.15" height="512.0" fill="#F76C30"/><rect x="186.18" y="0.0" width="47.15" height="512.0" fill="#FB7C37"/><rect x="232.73" y="0.0" width="47.15" height="512.0" fill="#FF8C3D"/><rect x="279.27" y="0.0" width="47.15" height="512.0" fill="#FF9A49"/><rect x="325.82" y="0.0" width="47.15" height="512.0" fill="#FFA855"/><rect x="372.36" y="0.0" width="47.15" height="512.0" fill="#FFB562"/><rect x="418.91" y="0.0" width="47.15" height="512.0" fill="#FFC36E"/><rect x="465.45" y="0.0" width="47.15" height="512.0" fill="#FFD17A"/><rect x="0.00" y="0.0" width="47.15" height="512.0" fill="url(#flB512)"/><rect x="46.55" y="0.0" width="47.15" height="512.0" fill="url(#flB512)"/><rect x="93.09" y="0.0" width="47.15" height="512.0" fill="url(#flB512)"/><rect x="139.64" y="0.0" width="47.15" height="512.0" fill="url(#flB512)"/><rect x="186.18" y="0.0" width="47.15" height="512.0" fill="url(#flB512)"/><rect x="232.73" y="0.0" width="47.15" height="512.0" fill="url(#flB512)"/><rect x="279.27" y="0.0" width="47.15" height="512.0" fill="url(#flB512)"/><rect x="325.82" y="0.0" width="47.15" height="512.0" fill="url(#flB512)"/><rect x="372.36" y="0.0" width="47.15" height="512.0" fill="url(#flB512)"/><rect x="418.91" y="0.0" width="47.15" height="512.0" fill="url(#flB512)"/><rect x="465.45" y="0.0" width="47.15" height="512.0" fill="url(#flB512)"/></g></g></svg>
